<svg width="71" height="70" viewBox="0 0 71 70" fill="none" xmlns="http://www.w3.org/2000/svg">
<path d="M35.5 47.3958C27.8583 47.3958 21.6458 41.1833 21.6458 33.5417V17.5C21.6458 9.85834 27.8583 3.64584 35.5 3.64584C43.1416 3.64584 49.3541 9.85834 49.3541 17.5V33.5417C49.3541 41.1833 43.1416 47.3958 35.5 47.3958ZM35.5 8.02084C30.2791 8.02084 26.0208 12.2792 26.0208 17.5V33.5417C26.0208 38.7625 30.2791 43.0208 35.5 43.0208C40.7208 43.0208 44.9791 38.7625 44.9791 33.5417V17.5C44.9791 12.2792 40.7208 8.02084 35.5 8.02084Z" fill="#292D32"/>
<path d="M35.4999 57.6041C21.9958 57.6041 10.9999 46.6083 10.9999 33.1041V28.1458C10.9999 26.95 11.9916 25.9583 13.1874 25.9583C14.3833 25.9583 15.3749 26.95 15.3749 28.1458V33.1041C15.3749 44.1875 24.4166 53.2291 35.4999 53.2291C46.5833 53.2291 55.6249 44.1875 55.6249 33.1041V28.1458C55.6249 26.95 56.6166 25.9583 57.8124 25.9583C59.0083 25.9583 59.9999 26.95 59.9999 28.1458V33.1041C59.9999 46.6083 49.0041 57.6041 35.4999 57.6041Z" fill="#292D32"/>
<path d="M39.5541 20.9417C39.3208 20.9417 39.0583 20.9125 38.7958 20.825C36.6666 20.0375 34.3333 20.0375 32.2041 20.825C31.0666 21.2333 29.8125 20.65 29.4041 19.5125C28.9958 18.375 29.5791 17.1208 30.7166 16.7125C33.8083 15.6042 37.2208 15.6042 40.3125 16.7125C41.45 17.1208 42.0333 18.375 41.625 19.5125C41.275 20.3875 40.4291 20.9417 39.5541 20.9417Z" fill="#292D32"/>
<path d="M37.8334 27.125C37.6292 27.125 37.4542 27.0958 37.25 27.0375C36.0834 26.7167 34.8875 26.7167 33.7209 27.0375C32.5542 27.3583 31.3584 26.6583 31.0375 25.4917C30.7167 24.3542 31.4167 23.1583 32.5834 22.8375C34.4792 22.3125 36.5209 22.3125 38.4167 22.8375C39.5834 23.1583 40.2834 24.3542 39.9625 25.5208C39.7 26.4833 38.7959 27.125 37.8334 27.125Z" fill="#292D32"/>
<path d="M35.5 66.3542C34.3042 66.3542 33.3125 65.3625 33.3125 64.1667V55.4167C33.3125 54.2208 34.3042 53.2292 35.5 53.2292C36.6958 53.2292 37.6875 54.2208 37.6875 55.4167V64.1667C37.6875 65.3625 36.6958 66.3542 35.5 66.3542Z" fill="#292D32"/>
</svg>
